<svg xmlns="http://www.w3.org/2000/svg" viewBox="0 0 400 300" width="400" height="300" role="img">
  <rect x="0" y="0" width="400" height="300" rx="24" fill="#F0FDF4"/>
  <rect x="70" y="120" width="120" height="100" rx="8" fill="none" stroke="#334155" stroke-width="6"/><line x1="70" y1="172" x2="190" y2="172" stroke="#334155" stroke-width="5" stroke-linecap="round"/><rect x="84" y="132" width="15" height="34" rx="3" fill="#22C55E" stroke="none" stroke-width="6"/><rect x="104" y="130" width="15" height="36" rx="3" fill="#8B5CF6" stroke="none" stroke-width="6"/><rect x="124" y="134" width="15" height="32" rx="3" fill="#06B6D4" stroke="none" stroke-width="6"/><rect x="150" y="138" width="15" height="28" rx="3" fill="#22C55E" stroke="none" stroke-width="6"/><path d="M 258 168 L 265 150 L 276 168 Z" fill="#22C55E" stroke="none" stroke-width="6" stroke-linecap="round" stroke-linejoin="round"/><path d="M 292 168 L 299 150 L 306 168 Z" fill="#22C55E" stroke="none" stroke-width="6" stroke-linecap="round" stroke-linejoin="round"/><circle cx="282" cy="182" r="20" fill="#22C55E" stroke="none" stroke-width="6"/><circle cx="276" cy="180" r="3" fill="#334155" stroke="none" stroke-width="6"/><circle cx="288" cy="180" r="3" fill="#334155" stroke="none" stroke-width="6"/><path d="M 262 200 q 20 26 40 0 q 8 18 0 26 l -40 0 q -8 -8 0 -26 Z" fill="#22C55E" stroke="none" stroke-width="6" stroke-linecap="round" stroke-linejoin="round"/><path d="M 300 216 q 22 -2 16 -26" fill="none" stroke="#22C55E" stroke-width="6" stroke-linecap="round" stroke-linejoin="round"/>
</svg>
