<svg xmlns="http://www.w3.org/2000/svg" viewBox="0 0 400 300" width="400" height="300" role="img">
  <rect x="0" y="0" width="400" height="300" rx="24" fill="#FFFBEB"/>
  <circle cx="140" cy="151.39999999999998" r="19.5" fill="#EC4899" stroke="none" stroke-width="6"/><path d="M 112.7 245
    L 112.7 199.5
    Q 112.7 178.7 133.5 178.7
    L 146.5 178.7
    Q 167.3 178.7 167.3 199.5
    L 167.3 245 Z" fill="#EC4899" stroke="none" stroke-width="6" stroke-linecap="round" stroke-linejoin="round"/><circle cx="260" cy="151.39999999999998" r="19.5" fill="#F59E0B" stroke="none" stroke-width="6"/><path d="M 232.7 245
    L 232.7 199.5
    Q 232.7 178.7 253.5 178.7
    L 266.5 178.7
    Q 287.3 178.7 287.3 199.5
    L 287.3 245 Z" fill="#F59E0B" stroke="none" stroke-width="6" stroke-linecap="round" stroke-linejoin="round"/><rect x="175" y="165" width="50" height="44" rx="6" fill="#F43F5E" stroke="none" stroke-width="6"/><rect x="171" y="155" width="58" height="16" rx="4" fill="#F43F5E" stroke="none" stroke-width="6"/><line x1="200" y1="157" x2="200" y2="209" stroke="#fff" stroke-width="5" stroke-linecap="round"/><path d="M 200 157 q -18 -20 -26 -2 q 14 4 26 2 q 12 2 26 -2 q -8 -18 -26 2 Z" fill="#F43F5E" stroke="none" stroke-width="6" stroke-linecap="round" stroke-linejoin="round"/><line x1="230" y1="185" x2="205" y2="180" stroke="#334155" stroke-width="5" stroke-linecap="round"/><line x1="205" y1="180" x2="218.3638901932288" y2="175.82789754400457" stroke="#334155" stroke-width="5" stroke-linecap="round"/><line x1="205" y1="180" x2="215.73124384913604" y2="188.99112926446838" stroke="#334155" stroke-width="5" stroke-linecap="round"/>
</svg>
