<svg xmlns="http://www.w3.org/2000/svg" viewBox="0 0 400 300" width="400" height="300" role="img">
  <rect x="0" y="0" width="400" height="300" rx="24" fill="#F5F3FF"/>
  <rect x="90" y="90" width="150" height="130" rx="10" fill="#fff" stroke="#334155" stroke-width="6"/><polygon points="165.0,122.0 172.8,144.3 196.4,144.8 177.6,159.1 184.4,181.7 165.0,168.2 145.6,181.7 152.4,159.1 133.6,144.8 157.2,144.3" fill="#8B5CF6"/><rect x="250" y="70" width="90" height="58" rx="14" fill="#fff" stroke="#334155" stroke-width="5"/><path d="M 270 128 L 262 144 L 286 128 Z" fill="#fff" stroke="#334155" stroke-width="5" stroke-linecap="round" stroke-linejoin="round"/><polygon points="295.0,82.0 299.2,94.2 312.1,94.4 301.8,102.2 305.6,114.6 295.0,107.2 284.4,114.6 288.2,102.2 277.9,94.4 290.8,94.2" fill="#65A30D"/>
</svg>
